<?xml version="1.0" encoding="UTF-8"?><svg id="pictoLinkedin" xmlns="http://www.w3.org/2000/svg" viewBox="0 0 97 97"><defs><style>.cls-1{fill:#fff;}.cls-2{fill:#dd3726;}</style></defs><g><ellipse class="cls-2" cx="48.5" cy="48.5" rx="47.66" ry="47.65"/><path class="cls-1" d="M48.5,97C21.76,97,0,75.24,0,48.5S21.76,0,48.5,0s48.5,21.76,48.5,48.5-21.76,48.5-48.5,48.5ZM48.5,1.7C22.69,1.7,1.69,22.69,1.69,48.5s21,46.8,46.81,46.8,46.81-20.99,46.81-46.8S74.31,1.7,48.5,1.7Z"/></g><g><path class="cls-1" d="M27.68,21c3.68,0,6.61,2.97,6.58,6.62-.03,3.65-3,6.62-6.68,6.62s-6.61-2.97-6.58-6.62,3.03-6.62,6.68-6.62Z"/><polygon class="cls-1" points="33.28 39.24 33 76 21.55 76 21.83 39.24 33.28 39.24"/><path class="cls-1" d="M62.41,38.35c11.59,0,13.67,7.59,13.59,17.5l-.15,20.15h-11.43l.14-17.86c.03-4.28-.02-9.76-5.88-9.76s-6.89,4.64-6.92,9.45l-.14,18.17h-11.45l.28-36.76h10.97l-.04,5.03h.17c1.55-2.88,5.3-5.92,10.87-5.92Z"/></g></svg>